<svg xmlns="http://www.w3.org/2000/svg" id="prefix__pencil-and-paper" width="22" height="24" viewBox="0 0 22 24">
    <defs>
        <style>
            .prefix__cls-1{fill:#38b14a}
        </style>
    </defs>
    <g id="prefix__Group_4997" data-name="Group 4997">
        <path id="prefix__Path_5132" d="M315.947 332.127l-1.8-1.8a1.129 1.129 0 00-.832-.363 1.015 1.015 0 00-.726.316l-1.441 1.418-5.752 5.752a.933.933 0 00-.176.293l-.961 3.409a.783.783 0 00-.035.211.643.643 0 00.644.6.66.66 0 00.187-.023l3.386-.984a.633.633 0 00.281-.14l5.787-5.775 1.417-1.418a1.163 1.163 0 00.328-.7 1.078 1.078 0 00-.307-.796zm-8.013 7.65l-2.132.6.621-2.132 5.178-5.178 1.535 1.511zm6.115-6.115l-1.534-1.511.82-.82 1.511 1.511z" class="prefix__cls-1" data-name="Path 5132" transform="translate(-294.252 -317.956)"/>
        <path id="prefix__Path_5133" d="M97.988 311.5H87.913a.635.635 0 00-.644.644.645.645 0 00.644.656h10.075a.645.645 0 00.644-.656.635.635 0 00-.644-.644z" class="prefix__cls-1" data-name="Path 5133" transform="translate(-85.008 -300.199)"/>
        <path id="prefix__Path_5134" d="M98.632 392.451a.635.635 0 00-.644-.644H87.913a.635.635 0 00-.644.644.645.645 0 00.644.656h10.075a.645.645 0 00.644-.656z" class="prefix__cls-1" data-name="Path 5134" transform="translate(-85.008 -377.59)"/>
        <path id="prefix__Path_5135" d="M92.587 471.464h-4.674a.644.644 0 000 1.289h4.674a.644.644 0 100-1.289z" class="prefix__cls-1" data-name="Path 5135" transform="translate(-85.008 -454.357)"/>
        <path id="prefix__Path_5136" d="M92.587 551.77h-4.674a.644.644 0 000 1.289h4.674a.644.644 0 100-1.289z" class="prefix__cls-1" data-name="Path 5136" transform="translate(-85.008 -531.741)"/>
        <path id="prefix__Path_5137" d="M26.061 22.59V1.41c0-.082.035-.118.116-.118h4.761V8.27a1.406 1.406 0 001.393 1.445h6.9v3.947h1.289V8.411h-.023L32.215.024 32.191 0h-6.014a1.357 1.357 0 00-1 .411 1.382 1.382 0 00-.406 1V22.59a1.386 1.386 0 001.4 1.41h7.582v-1.292h-7.576c-.077 0-.116-.036-.116-.118zm6.154-20.722l6.467 6.543h-6.351c-.081 0-.116-.047-.116-.141v-6.4z" class="prefix__cls-1" data-name="Path 5137" transform="translate(-24.772)"/>
    </g>
</svg>
