<svg xmlns="http://www.w3.org/2000/svg" width="22.122" height="22.061" viewBox="0 0 22.122 22.061">
  <g id="Group_5607" data-name="Group 5607" transform="translate(-320.949 -392.984)">
    <rect id="Rectangle_1456" data-name="Rectangle 1456" width="22" height="22" transform="translate(321 393)" fill="#fff"/>
    <g id="pencil-and-paper" transform="translate(17.228 63.524)">
      <g id="Group_5606" data-name="Group 5606" transform="translate(304.221 329.96)">
        <path id="Path_9020" data-name="Path 9020" d="M324.808,333.765l-3.167-3.167a1.983,1.983,0,0,0-1.46-.638,1.782,1.782,0,0,0-1.275.555L316.376,333l-10.1,10.1a1.636,1.636,0,0,0-.308.514l-1.687,5.985a1.372,1.372,0,0,0-.061.37,1.128,1.128,0,0,0,1.131,1.049,1.159,1.159,0,0,0,.329-.041l5.944-1.728a1.112,1.112,0,0,0,.494-.247l10.16-10.139,2.488-2.489a2.041,2.041,0,0,0,.576-1.234A1.893,1.893,0,0,0,324.808,333.765Zm-14.068,13.43L307,348.244l1.09-3.743,9.091-9.091,2.694,2.653Zm10.736-10.736-2.694-2.653,1.44-1.44,2.653,2.653Z" transform="translate(-304.221 -329.96)" fill="#37b245" stroke="#fff" stroke-width="1"/>
      </g>
    </g>
  </g>
</svg>
