<?xml version="1.0" encoding="utf-8"?>
<!-- Generator: Adobe Illustrator 22.1.0, SVG Export Plug-In . SVG Version: 6.00 Build 0)  -->
<svg version="1.1" id="Layer_1" xmlns="http://www.w3.org/2000/svg" xmlns:xlink="http://www.w3.org/1999/xlink" x="0px" y="0px"
	 viewBox="0 0 110 113" style="enable-background:new 0 0 110 113;" xml:space="preserve">
<style type="text/css">
	.st0{fill:#A8A4A7;}
</style>
<g>
	<g>
		<path class="st0" d="M99.7,48.8L99.7,48.8H63.2V12.5c0-3-2.4-5.5-5.4-5.5h-4.7c-3,0-5.4,2.5-5.4,5.5v36.3H11.3
			c-3,0-5.4,2.4-5.4,5.4v4.7c0,3,2.4,5.4,5.4,5.4h36.4v36.5c0,3,2.4,5.4,5.4,5.4h4.7c3,0,5.4-2.4,5.4-5.4V64.3h36.4
			c3,0,5.4-2.4,5.4-5.4v-4.7C105.1,51.3,102.6,48.8,99.7,48.8z"/>
	</g>
</g>
</svg>
